<svg width="28" height="27" viewBox="0 0 28 27" fill="none" xmlns="http://www.w3.org/2000/svg">
<path d="M9.30209 26.9999C4.24186 26.9707 0.0561447 16.6411 0.0561447 11.3804C0.0561447 2.78721 6.50253 0.905922 8.98692 0.905922C10.1065 0.905922 11.302 1.3456 12.3565 1.73467C13.0939 2.00607 13.8565 2.28624 14.2806 2.28624C14.5345 2.28624 15.1328 2.04791 15.6609 1.8388C16.7874 1.39036 18.1891 0.833008 19.8214 0.833008C19.8243 0.833008 19.8282 0.833008 19.8311 0.833008C21.0499 0.833008 24.7454 1.10049 26.9671 4.43701L27.4876 5.21907L26.7386 5.78426C25.6686 6.59163 23.7162 8.06438 23.7162 10.9817C23.7162 14.4369 25.9273 15.7656 26.9895 16.4047C27.4584 16.6868 27.9438 16.9777 27.9438 17.6139C27.9438 18.0292 24.6286 26.9483 19.8145 26.9483C18.6365 26.9483 17.8039 26.5942 17.0694 26.282C16.3263 25.9658 15.6852 25.6935 14.6259 25.6935C14.0889 25.6935 13.4099 25.9474 12.6911 26.2169C11.7087 26.5835 10.5968 26.9999 9.33516 26.9999H9.30209Z" fill="white"/>
</svg>
